<svg xmlns="http://www.w3.org/2000/svg" width="704" height="704" viewBox="0 0 704 704" shape-rendering="crispEdges">
<path d="M44 0h11M55 0h11M55 0v11M99 0h11M110 0h11M110 0v11M121 0v11M132 0h11M132 0v11M143 0v11M176 0h11M187 0h11M187 0v11M242 0h11M253 0h11M253 0v11M264 0h11M275 0h11M286 0v11M308 0h11M308 0v11M319 0h11M330 0h11M341 0h11M341 0v11M385 0h11M396 0h11M396 0v11M407 0h11M407 0v11M462 0h11M473 0h11M473 0v11M484 0h11M506 0h11M506 0v11M517 0h11M528 0v11M539 0h11M539 0v11M583 0v11M594 0h11M594 0v11M605 0h11M605 0v11M616 0h11M616 0v11M627 0v11M638 0h11M649 0v11M693 0h11M693 0v11M0 11v11M44 11h11M44 11v11M55 11v11M110 11v11M121 11h11M143 11h11M143 11v11M154 11v11M176 11h11M176 11v11M187 11h11M198 11h11M209 11v11M242 11h11M242 11v11M253 11h11M253 11v11M264 11h11M275 11h11M275 11v11M308 11h11M319 11h11M319 11v11M330 11v11M341 11h11M341 11v11M352 11v11M385 11h11M385 11v11M396 11h11M396 11v11M407 11h11M407 11v11M418 11h11M429 11v11M462 11h11M462 11v11M473 11h11M473 11v11M484 11h11M484 11v11M495 11h11M495 11v11M506 11h11M506 11v11M517 11v11M528 11h11M539 11h11M539 11v11M550 11v11M583 11h11M583 11v11M605 11h11M627 11h11M638 11h11M638 11v11M649 11h11M660 11h11M660 11v11M671 11h11M682 11h11M682 11v11M693 11h11M0 22h11M0 22v11M11 22h11M11 22v11M22 22h11M22 22v11M33 22h11M33 22v11M55 22h11M55 22v11M66 22v11M77 22h11M77 22v11M88 22v11M99 22h11M99 22v11M143 22h11M154 22h11M154 22v11M165 22h11M176 22h11M176 22v11M187 22h11M198 22h11M198 22v11M209 22h11M209 22v11M220 22v11M231 22h11M231 22v11M242 22h11M242 22v11M253 22v11M275 22h11M275 22v11M286 22v11M308 22h11M308 22v11M330 22h11M330 22v11M341 22h11M341 22v11M363 22h11M363 22v11M374 22v11M385 22h11M396 22v11M407 22h11M418 22h11M418 22v11M429 22h11M429 22v11M440 22v11M451 22h11M451 22v11M462 22h11M462 22v11M473 22h11M473 22v11M495 22h11M506 22h11M506 22v11M517 22h11M528 22h11M539 22h11M539 22v11M550 22h11M550 22v11M561 22v11M572 22h11M572 22v11M583 22v11M638 22v11M660 22v11M682 22v11M11 33h11M33 33h11M44 33v11M55 33v11M66 33h11M77 33v11M88 33h11M99 33h11M110 33v11M143 33h11M143 33v11M165 33h11M165 33v11M198 33h11M209 33v11M220 33h11M220 33v11M242 33h11M253 33h11M264 33h11M264 33v11M286 33h11M286 33v11M297 33v11M308 33v11M319 33h11M319 33v11M341 33h11M352 33h11M363 33h11M363 33v11M374 33h11M385 33h11M385 33v11M396 33h11M396 33v11M407 33v11M418 33h11M418 33v11M429 33h11M440 33h11M451 33v11M462 33h11M462 33v11M506 33h11M517 33h11M528 33v11M539 33h11M539 33v11M550 33h11M550 33v11M561 33h11M572 33h11M572 33v11M583 33h11M594 33v11M627 33h11M627 33v11M660 33h11M671 33h11M671 33v11M682 33h11M693 33h11M693 33v11M44 44h11M44 44v11M77 44h11M88 44h11M88 44v11M99 44h11M110 44h11M121 44v11M132 44h11M132 44v11M143 44h11M143 44v11M154 44h11M154 44v11M165 44v11M198 44h11M198 44v11M209 44h11M209 44v11M264 44h11M264 44v11M275 44h11M297 44h11M308 44h11M308 44v11M352 44h11M352 44v11M374 44h11M374 44v11M396 44v11M407 44h11M407 44v11M451 44h11M462 44h11M462 44v11M473 44v11M517 44h11M517 44v11M528 44h11M528 44v11M550 44v11M572 44v11M594 44h11M594 44v11M605 44h11M616 44h11M627 44h11M638 44v11M660 44h11M660 44v11M682 44h11M682 44v11M693 44v11M0 55v11M33 55h11M33 55v11M44 55h11M44 55v11M55 55v11M77 55h11M77 55v11M88 55h11M88 55v11M99 55v11M110 55h11M110 55v11M121 55h11M121 55v11M132 55v11M143 55v11M154 55h11M165 55v11M198 55h11M209 55h11M209 55v11M220 55h11M220 55v11M231 55v11M242 55h11M242 55v11M253 55h11M253 55v11M264 55h11M275 55v11M308 55h11M319 55v11M352 55h11M363 55h11M363 55v11M374 55h11M385 55h11M396 55v11M407 55h11M418 55v11M451 55h11M451 55v11M473 55h11M473 55v11M484 55h11M495 55h11M495 55v11M506 55h11M528 55v11M539 55h11M539 55v11M572 55h11M583 55h11M583 55v11M594 55h11M594 55v11M605 55h11M616 55h11M627 55h11M627 55v11M638 55h11M638 55v11M649 55v11M660 55h11M660 55v11M671 55h11M671 55v11M693 55h11M0 66h11M11 66h11M11 66v11M22 66h11M22 66v11M33 66h11M33 66v11M55 66v11M77 66h11M77 66v11M99 66h11M121 66h11M121 66v11M132 66h11M132 66v11M165 66h11M165 66v11M176 66v11M198 66h11M198 66v11M220 66v11M231 66h11M253 66v11M264 66h11M264 66v11M308 66h11M308 66v11M319 66h11M330 66v11M341 66h11M341 66v11M352 66h11M352 66v11M396 66h11M407 66h11M407 66v11M429 66h11M429 66v11M440 66v11M451 66h11M462 66h11M462 66v11M473 66h11M484 66v11M495 66h11M495 66v11M506 66h11M517 66h11M528 66h11M528 66v11M539 66h11M539 66v11M550 66v11M572 66h11M572 66v11M583 66h11M594 66v11M605 66h11M605 66v11M616 66h11M627 66v11M638 66h11M649 66h11M649 66v11M660 66h11M660 66v11M0 77h11M0 77v11M11 77h11M33 77h11M44 77v11M55 77h11M55 77v11M66 77h11M77 77v11M110 77h11M110 77v11M121 77h11M121 77v11M165 77v11M176 77h11M176 77v11M187 77h11M198 77v11M209 77h11M209 77v11M253 77h11M264 77h11M264 77v11M275 77h11M286 77v11M297 77h11M297 77v11M308 77v11M319 77h11M319 77v11M330 77h11M330 77v11M341 77h11M341 77v11M352 77h11M352 77v11M363 77v11M396 77h11M396 77v11M407 77h11M407 77v11M418 77h11M429 77v11M440 77h11M440 77v11M451 77h11M451 77v11M462 77v11M473 77h11M473 77v11M484 77v11M495 77h11M495 77v11M506 77v11M517 77h11M517 77v11M539 77h11M550 77h11M550 77v11M561 77v11M572 77h11M572 77v11M583 77v11M594 77h11M616 77h11M616 77v11M649 77h11M660 77h11M660 77v11M671 77v11M0 88h11M0 88v11M11 88v11M44 88h11M55 88v11M77 88v11M110 88h11M121 88h11M121 88v11M132 88v11M165 88h11M165 88v11M176 88h11M187 88v11M198 88h11M209 88h11M209 88v11M220 88v11M253 88h11M253 88v11M264 88h11M275 88h11M275 88v11M286 88h11M297 88h11M308 88h11M308 88v11M330 88h11M341 88h11M341 88v11M352 88h11M352 88v11M374 88h11M374 88v11M385 88v11M396 88h11M407 88v11M418 88h11M418 88v11M429 88h11M451 88h11M462 88v11M473 88v11M484 88h11M506 88h11M506 88v11M550 88h11M561 88h11M561 88v11M572 88h11M572 88v11M616 88h11M627 88v11M649 88h11M649 88v11M660 88v11M671 88v11M682 88h11M682 88v11M693 88v11M0 99h11M0 99v11M44 99h11M44 99v11M77 99h11M88 99v11M99 99h11M99 99v11M110 99v11M121 99h11M121 99v11M132 99h11M132 99v11M143 99v11M154 99h11M154 99v11M165 99v11M187 99h11M187 99v11M198 99h11M209 99v11M220 99h11M231 99v11M242 99h11M242 99v11M275 99h11M286 99v11M297 99h11M297 99v11M341 99h11M352 99h11M363 99h11M363 99v11M374 99h11M385 99h11M396 99h11M396 99v11M407 99v11M418 99v11M462 99h11M462 99v11M506 99h11M517 99v11M550 99h11M550 99v11M561 99v11M572 99h11M583 99v11M616 99h11M616 99v11M627 99v11M649 99v11M660 99h11M671 99h11M671 99v11M693 99h11M693 99v11M0 110h11M11 110h11M11 110v11M22 110v11M33 110h11M33 110v11M44 110h11M55 110v11M77 110h11M77 110v11M88 110h11M88 110v11M99 110v11M110 110h11M110 110v11M121 110h11M121 110v11M132 110h11M132 110v11M143 110h11M143 110v11M154 110h11M154 110v11M187 110h11M198 110h11M198 110v11M231 110h11M242 110h11M242 110v11M253 110v11M286 110h11M286 110v11M297 110h11M308 110v11M352 110h11M352 110v11M363 110v11M374 110h11M374 110v11M385 110h11M385 110v11M407 110h11M418 110h11M429 110v11M462 110h11M462 110v11M473 110v11M506 110h11M506 110v11M517 110v11M528 110h11M528 110v11M539 110v11M550 110v11M561 110h11M572 110h11M583 110h11M583 110v11M594 110h11M594 110v11M605 110h11M627 110h11M627 110v11M638 110h11M638 110v11M671 110h11M682 110v11M693 110v11M0 121h11M0 121v11M11 121v11M22 121h11M33 121v11M44 121h11M44 121v11M55 121h11M66 121v11M77 121v11M88 121v11M99 121h11M121 121v11M132 121v11M143 121h11M154 121h11M165 121v11M187 121h11M187 121v11M198 121h11M209 121v11M231 121h11M231 121v11M242 121h11M242 121v11M286 121v11M308 121h11M308 121v11M319 121h11M319 121v11M330 121h11M341 121h11M341 121v11M363 121h11M385 121v11M418 121h11M418 121v11M462 121h11M462 121v11M473 121h11M473 121v11M484 121v11M495 121h11M495 121v11M506 121h11M506 121v11M517 121h11M517 121v11M539 121h11M550 121h11M561 121h11M561 121v11M572 121h11M583 121h11M594 121h11M605 121h11M605 121v11M616 121h11M638 121h11M638 121v11M649 121v11M671 121h11M671 121v11M682 121h11M693 121v11M0 132h11M0 132v11M33 132h11M44 132h11M44 132v11M55 132v11M66 132h11M66 132v11M77 132h11M77 132v11M121 132h11M132 132h11M132 132v11M143 132h11M154 132h11M154 132v11M165 132h11M176 132v11M187 132h11M187 132v11M198 132v11M209 132v11M231 132v11M242 132h11M253 132v11M275 132h11M275 132v11M308 132h11M319 132v11M341 132v11M374 132h11M374 132v11M385 132v11M418 132h11M429 132h11M429 132v11M440 132v11M451 132h11M451 132v11M462 132v11M473 132v11M484 132h11M495 132h11M506 132v11M517 132v11M550 132h11M550 132v11M605 132h11M616 132h11M616 132v11M627 132h11M638 132v11M649 132v11M671 132h11M671 132v11M682 132v11M693 132h11M0 143h11M0 143v11M11 143v11M33 143h11M33 143v11M55 143v11M66 143h11M66 143v11M77 143h11M77 143v11M88 143v11M121 143h11M121 143v11M143 143h11M143 143v11M154 143v11M165 143h11M165 143v11M176 143h11M176 143v11M187 143v11M198 143h11M209 143h11M209 143v11M220 143h11M220 143v11M231 143h11M242 143h11M253 143h11M264 143h11M264 143v11M275 143h11M275 143v11M286 143v11M308 143h11M308 143v11M319 143h11M330 143h11M330 143v11M341 143v11M374 143h11M385 143v11M429 143v11M440 143h11M462 143v11M473 143h11M484 143h11M484 143v11M495 143h11M506 143v11M517 143v11M550 143h11M561 143h11M561 143v11M572 143v11M605 143h11M605 143v11M638 143h11M649 143h11M649 143v11M660 143h11M682 143h11M693 143h11M11 154v11M33 154v11M44 154h11M44 154v11M55 154h11M55 154v11M77 154h11M88 154h11M99 154v11M110 154h11M110 154v11M121 154h11M121 154v11M132 154h11M154 154h11M165 154h11M176 154h11M176 154v11M209 154h11M209 154v11M264 154h11M275 154v11M286 154h11M286 154v11M297 154v11M308 154v11M330 154v11M341 154h11M352 154v11M363 154h11M363 154v11M374 154v11M385 154h11M385 154v11M396 154v11M407 154h11M407 154v11M418 154h11M418 154v11M462 154h11M473 154h11M473 154v11M484 154v11M495 154h11M495 154v11M506 154v11M517 154v11M561 154h11M561 154v11M572 154h11M572 154v11M583 154v11M594 154h11M594 154v11M605 154h11M605 154v11M616 154v11M649 154v11M693 154h11M693 154v11M0 165h11M11 165h11M22 165h11M22 165v11M33 165h11M44 165h11M44 165v11M99 165h11M99 165v11M121 165v11M165 165h11M165 165v11M209 165h11M209 165v11M220 165v11M264 165h11M264 165v11M286 165v11M297 165h11M297 165v11M308 165h11M319 165h11M330 165h11M341 165v11M352 165h11M352 165v11M363 165v11M374 165h11M374 165v11M396 165h11M407 165v11M418 165h11M429 165v11M462 165h11M462 165v11M484 165h11M506 165h11M517 165h11M517 165v11M528 165v11M539 165h11M539 165v11M550 165h11M561 165h11M561 165v11M583 165h11M594 165h11M594 165v11M605 165h11M605 165v11M649 165h11M649 165v11M660 165h11M671 165v11M682 165h11M682 165v11M693 165h11M22 176h11M33 176v11M44 176h11M55 176h11M55 176v11M66 176v11M77 176h11M77 176v11M88 176h11M99 176v11M110 176h11M110 176v11M121 176h11M132 176h11M132 176v11M143 176v11M154 176h11M154 176v11M165 176h11M176 176v11M209 176v11M220 176v11M242 176h11M242 176v11M253 176v11M264 176h11M264 176v11M275 176h11M275 176v11M286 176h11M286 176v11M341 176h11M352 176v11M363 176v11M374 176h11M385 176h11M385 176v11M396 176h11M396 176v11M429 176h11M440 176v11M451 176h11M451 176v11M462 176v11M517 176v11M528 176h11M539 176h11M550 176v11M561 176v11M594 176h11M605 176h11M605 176v11M616 176v11M638 176h11M638 176v11M649 176h11M660 176v11M671 176h11M671 176v11M22 187h11M22 187v11M33 187h11M33 187v11M44 187h11M55 187v11M66 187h11M66 187v11M77 187h11M88 187h11M99 187h11M99 187v11M110 187h11M121 187v11M132 187h11M132 187v11M143 187h11M143 187v11M154 187v11M165 187h11M165 187v11M176 187h11M176 187v11M187 187v11M198 187h11M198 187v11M209 187v11M220 187h11M231 187h11M231 187v11M242 187v11M253 187h11M253 187v11M264 187v11M275 187h11M286 187h11M286 187v11M297 187v11M341 187h11M341 187v11M352 187h11M352 187v11M363 187h11M363 187v11M374 187h11M396 187h11M396 187v11M407 187v11M429 187h11M429 187v11M440 187h11M451 187v11M462 187h11M462 187v11M473 187v11M506 187h11M506 187v11M517 187h11M528 187h11M528 187v11M539 187h11M539 187v11M550 187h11M550 187v11M561 187v11M594 187h11M594 187v11M616 187h11M627 187h11M627 187v11M660 187h11M671 187h11M671 187v11M682 187h11M682 187v11M693 187v11M0 198v11M11 198h11M11 198v11M22 198h11M22 198v11M33 198v11M55 198h11M55 198v11M99 198h11M110 198h11M110 198v11M121 198v11M132 198v11M143 198h11M154 198v11M165 198h11M165 198v11M187 198h11M198 198h11M209 198h11M209 198v11M220 198h11M231 198h11M231 198v11M253 198h11M253 198v11M286 198h11M297 198v11M319 198h11M319 198v11M330 198v11M341 198h11M341 198v11M363 198h11M374 198h11M385 198h11M385 198v11M407 198v11M429 198v11M451 198v11M462 198v11M473 198h11M484 198h11M484 198v11M495 198h11M506 198v11M517 198h11M517 198v11M539 198h11M561 198v11M583 198h11M583 198v11M594 198h11M594 198v11M605 198h11M605 198v11M616 198h11M616 198v11M627 198h11M638 198v11M671 198v11M682 198h11M682 198v11M693 198h11M693 198v11M0 209h11M0 209v11M11 209h11M22 209h11M22 209v11M55 209h11M66 209v11M99 209h11M99 209v11M110 209h11M121 209h11M121 209v11M154 209h11M154 209v11M198 209h11M198 209v11M231 209h11M242 209h11M242 209v11M253 209h11M253 209v11M264 209v11M286 209h11M286 209v11M297 209h11M297 209v11M308 209h11M308 209v11M319 209h11M330 209h11M330 209v11M385 209v11M396 209h11M396 209v11M407 209h11M407 209v11M418 209h11M429 209h11M440 209h11M451 209v11M462 209h11M462 209v11M473 209v11M484 209h11M484 209v11M495 209v11M506 209v11M517 209v11M550 209h11M550 209v11M561 209h11M561 209v11M572 209v11M583 209v11M594 209h11M616 209h11M627 209h11M627 209v11M671 209v11M682 209h11M682 209v11M22 220h11M33 220v11M55 220h11M55 220v11M77 220h11M77 220v11M88 220v11M99 220h11M110 220h11M110 220v11M154 220h11M154 220v11M165 220v11M198 220h11M209 220v11M242 220h11M242 220v11M264 220v11M286 220v11M297 220v11M308 220v11M330 220h11M330 220v11M341 220h11M341 220v11M352 220v11M363 220h11M363 220v11M374 220h11M385 220h11M396 220h11M396 220v11M451 220h11M462 220v11M473 220h11M495 220h11M506 220h11M506 220v11M517 220v11M550 220h11M561 220v11M572 220h11M583 220h11M594 220v11M627 220h11M627 220v11M638 220v11M660 220h11M660 220v11M671 220v11M682 220v11M693 220h11M693 220v11M22 231h11M22 231v11M33 231h11M44 231v11M55 231h11M55 231v11M66 231h11M88 231h11M99 231h11M99 231v11M110 231h11M121 231v11M154 231v11M165 231h11M176 231v11M187 231h11M187 231v11M198 231h11M198 231v11M242 231v11M253 231h11M253 231v11M264 231h11M264 231v11M275 231h11M286 231v11M297 231v11M308 231h11M319 231h11M319 231v11M330 231v11M341 231h11M352 231h11M363 231h11M363 231v11M374 231h11M385 231h11M396 231h11M396 231v11M407 231h11M418 231v11M451 231h11M451 231v11M462 231h11M473 231v11M506 231v11M517 231h11M528 231v11M539 231h11M539 231v11M550 231v11M561 231h11M561 231v11M572 231h11M572 231v11M583 231h11M583 231v11M627 231v11M638 231h11M649 231h11M649 231v11M660 231h11M671 231h11M682 231h11M682 231v11M693 231v11M22 242h11M33 242v11M44 242h11M44 242v11M55 242h11M55 242v11M66 242v11M99 242h11M110 242h11M110 242v11M121 242h11M121 242v11M132 242v11M143 242h11M143 242v11M154 242h11M165 242v11M176 242h11M176 242v11M187 242h11M198 242h11M198 242v11M209 242v11M231 242h11M231 242v11M242 242h11M253 242h11M264 242v11M286 242v11M297 242h11M297 242v11M308 242h11M330 242h11M341 242h11M352 242h11M352 242v11M396 242h11M407 242h11M407 242v11M418 242h11M418 242v11M429 242v11M440 242h11M440 242v11M451 242h11M451 242v11M462 242h11M462 242v11M506 242h11M506 242v11M517 242v11M528 242h11M528 242v11M550 242h11M572 242v11M583 242v11M594 242h11M594 242v11M605 242v11M616 242h11M616 242v11M627 242h11M638 242h11M638 242v11M682 242h11M693 242v11M0 253v11M22 253h11M22 253v11M33 253h11M44 253v11M55 253h11M55 253v11M99 253h11M99 253v11M110 253h11M121 253v11M132 253h11M132 253v11M143 253h11M154 253v11M165 253h11M165 253v11M198 253h11M209 253h11M209 253v11M220 253h11M220 253v11M231 253v11M242 253h11M242 253v11M253 253h11M253 253v11M286 253h11M297 253v11M341 253h11M341 253v11M352 253v11M407 253h11M407 253v11M418 253v11M429 253h11M440 253v11M451 253h11M462 253v11M473 253h11M473 253v11M484 253v11M495 253h11M495 253v11M506 253h11M517 253h11M517 253v11M528 253v11M561 253h11M561 253v11M572 253v11M583 253h11M583 253v11M594 253v11M605 253h11M605 253v11M616 253v11M627 253h11M627 253v11M638 253v11M693 253h11M693 253v11M0 264h11M11 264h11M22 264v11M44 264v11M55 264h11M66 264h11M66 264v11M77 264v11M88 264h11M88 264v11M99 264h11M110 264v11M121 264h11M143 264h11M143 264v11M154 264h11M165 264h11M165 264v11M176 264v11M209 264h11M209 264v11M231 264h11M253 264h11M264 264v11M286 264h11M286 264v11M297 264h11M308 264h11M319 264v11M330 264h11M330 264v11M341 264h11M352 264h11M363 264v11M374 264h11M374 264v11M385 264v11M396 264h11M396 264v11M407 264h11M407 264v11M440 264h11M451 264v11M462 264h11M462 264v11M473 264h11M484 264h11M484 264v11M495 264v11M517 264v11M528 264v11M561 264h11M572 264v11M583 264v11M594 264h11M616 264v11M627 264h11M627 264v11M638 264h11M649 264v11M660 264h11M660 264v11M671 264v11M682 264h11M682 264v11M11 275h11M11 275v11M22 275h11M22 275v11M33 275h11M33 275v11M44 275h11M44 275v11M55 275h11M55 275v11M66 275h11M66 275v11M77 275h11M88 275h11M99 275h11M99 275v11M143 275h11M154 275v11M165 275h11M165 275v11M209 275v11M264 275h11M264 275v11M275 275v11M286 275h11M286 275v11M297 275v11M308 275h11M308 275v11M319 275h11M319 275v11M330 275v11M341 275h11M341 275v11M352 275h11M352 275v11M363 275h11M363 275v11M374 275h11M374 275v11M385 275h11M385 275v11M396 275h11M407 275h11M418 275v11M440 275h11M440 275v11M451 275h11M451 275v11M473 275h11M473 275v11M484 275h11M484 275v11M517 275h11M528 275h11M528 275v11M539 275v11M550 275h11M550 275v11M561 275v11M572 275h11M572 275v11M616 275h11M627 275v11M649 275h11M649 275v11M660 275h11M671 275h11M671 275v11M11 286h11M22 286v11M33 286h11M55 286h11M55 286v11M99 286h11M110 286v11M143 286h11M143 286v11M154 286v11M165 286h11M165 286v11M176 286v11M198 286h11M198 286v11M209 286h11M220 286v11M253 286h11M253 286v11M264 286v11M275 286h11M286 286h11M286 286v11M297 286h11M319 286h11M330 286h11M330 286v11M341 286h11M341 286v11M363 286h11M385 286h11M396 286h11M396 286v11M407 286v11M418 286v11M440 286v11M451 286h11M451 286v11M462 286h11M484 286h11M484 286v11M495 286v11M517 286h11M517 286v11M539 286h11M539 286v11M561 286h11M572 286h11M583 286v11M616 286h11M616 286v11M649 286h11M660 286v11M671 286h11M671 286v11M682 286v11M0 297h11M0 297v11M11 297h11M11 297v11M55 297h11M66 297v11M99 297h11M99 297v11M110 297h11M110 297v11M121 297h11M121 297v11M132 297h11M143 297v11M154 297h11M154 297v11M176 297h11M176 297v11M187 297h11M187 297v11M198 297h11M209 297v11M220 297h11M231 297h11M231 297v11M242 297h11M253 297h11M253 297v11M286 297h11M297 297v11M330 297h11M341 297v11M396 297h11M396 297v11M407 297h11M418 297h11M429 297h11M429 297v11M440 297h11M440 297v11M451 297h11M451 297v11M462 297h11M462 297v11M473 297h11M473 297v11M484 297v11M495 297h11M506 297v11M517 297h11M517 297v11M528 297h11M528 297v11M583 297h11M583 297v11M594 297v11M605 297h11M605 297v11M616 297h11M616 297v11M627 297v11M649 297h11M649 297v11M660 297v11M671 297h11M671 297v11M682 297h11M693 297v11M0 308v11M11 308h11M22 308v11M55 308h11M55 308v11M77 308h11M77 308v11M88 308v11M99 308h11M110 308v11M121 308h11M132 308v11M143 308h11M154 308v11M165 308h11M165 308v11M187 308h11M198 308h11M209 308h11M209 308v11M220 308h11M220 308v11M231 308h11M242 308h11M253 308h11M253 308v11M264 308v11M286 308h11M286 308v11M330 308h11M330 308v11M341 308h11M352 308v11M385 308h11M385 308v11M429 308h11M440 308v11M451 308v11M462 308h11M484 308h11M495 308h11M495 308v11M506 308h11M528 308h11M539 308h11M550 308v11M561 308h11M561 308v11M572 308h11M583 308h11M583 308v11M594 308h11M616 308h11M627 308h11M638 308v11M649 308v11M660 308h11M660 308v11M693 308h11M22 319h11M33 319v11M44 319h11M44 319v11M55 319h11M66 319h11M77 319h11M77 319v11M88 319h11M88 319v11M99 319h11M99 319v11M132 319h11M143 319h11M143 319v11M154 319h11M154 319v11M198 319h11M198 319v11M209 319h11M209 319v11M253 319h11M264 319v11M286 319h11M286 319v11M297 319h11M297 319v11M308 319v11M319 319h11M319 319v11M330 319v11M352 319h11M352 319v11M363 319h11M374 319h11M374 319v11M385 319h11M385 319v11M396 319v11M429 319h11M429 319v11M451 319h11M451 319v11M462 319v11M495 319v11M539 319h11M539 319v11M550 319h11M550 319v11M561 319h11M561 319v11M572 319v11M583 319v11M627 319h11M627 319v11M638 319h11M638 319v11M649 319h11M649 319v11M660 319v11M693 319h11M693 319v11M0 330v11M22 330h11M22 330v11M33 330h11M33 330v11M44 330h11M55 330h11M66 330h11M66 330v11M88 330h11M99 330h11M110 330v11M132 330h11M132 330v11M143 330h11M143 330v11M154 330h11M165 330v11M198 330h11M209 330h11M209 330v11M220 330v11M253 330h11M253 330v11M264 330h11M275 330h11M286 330v11M297 330v11M308 330h11M319 330h11M319 330v11M330 330h11M341 330h11M352 330h11M363 330v11M374 330v11M385 330h11M385 330v11M407 330h11M407 330v11M418 330v11M429 330h11M440 330h11M440 330v11M451 330h11M451 330v11M495 330h11M495 330v11M506 330h11M517 330v11M528 330h11M528 330v11M550 330h11M561 330h11M561 330v11M572 330h11M572 330v11M583 330h11M594 330h11M594 330v11M605 330v11M616 330h11M616 330v11M638 330h11M660 330v11M693 330h11M0 341v11M22 341h11M22 341v11M33 341v11M44 341h11M44 341v11M55 341h11M66 341v11M99 341h11M99 341v11M110 341v11M132 341h11M132 341v11M143 341v11M165 341h11M165 341v11M176 341v11M187 341h11M187 341v11M198 341h11M198 341v11M209 341h11M209 341v11M231 341h11M231 341v11M242 341v11M253 341h11M264 341h11M264 341v11M275 341h11M286 341v11M297 341h11M308 341h11M308 341v11M363 341h11M374 341v11M385 341h11M385 341v11M396 341h11M407 341h11M407 341v11M418 341h11M429 341h11M429 341v11M451 341v11M462 341h11M462 341v11M473 341v11M484 341h11M484 341v11M495 341h11M495 341v11M506 341v11M517 341h11M528 341v11M561 341h11M572 341v11M594 341v11M605 341h11M616 341v11M649 341h11M649 341v11M660 341h11M671 341v11M693 341h11M693 341v11M0 352h11M0 352v11M11 352h11M11 352v11M22 352v11M33 352h11M44 352v11M66 352v11M99 352h11M110 352h11M110 352v11M121 352h11M121 352v11M143 352h11M154 352h11M165 352h11M165 352v11M176 352h11M198 352h11M209 352h11M220 352h11M220 352v11M231 352h11M242 352h11M253 352h11M253 352v11M286 352h11M297 352h11M297 352v11M308 352h11M319 352v11M363 352h11M363 352v11M374 352v11M385 352h11M385 352v11M396 352v11M407 352h11M407 352v11M418 352v11M429 352v11M440 352h11M440 352v11M451 352h11M473 352h11M484 352h11M495 352v11M506 352h11M517 352h11M528 352v11M561 352h11M561 352v11M572 352h11M583 352h11M583 352v11M594 352v11M605 352h11M605 352v11M616 352v11M649 352h11M660 352v11M671 352h11M671 352v11M682 352h11M0 363h11M0 363v11M11 363h11M11 363v11M44 363h11M44 363v11M55 363h11M66 363v11M110 363h11M110 363v11M154 363h11M154 363v11M165 363v11M209 363h11M209 363v11M253 363h11M264 363v11M297 363v11M319 363v11M341 363h11M341 363v11M352 363v11M363 363h11M363 363v11M374 363h11M374 363v11M396 363h11M407 363h11M407 363v11M418 363v11M429 363h11M429 363v11M440 363v11M484 363h11M484 363v11M495 363h11M506 363h11M517 363h11M528 363v11M550 363h11M550 363v11M561 363h11M561 363v11M572 363h11M572 363v11M594 363h11M616 363h11M627 363v11M638 363h11M638 363v11M649 363v11M660 363h11M660 363v11M671 363h11M682 363h11M682 363v11M693 363h11M0 374h11M0 374v11M44 374v11M55 374h11M55 374v11M66 374h11M77 374v11M88 374h11M88 374v11M99 374h11M110 374h11M110 374v11M121 374v11M154 374h11M165 374h11M165 374v11M176 374h11M176 374v11M187 374v11M198 374h11M198 374v11M209 374h11M209 374v11M220 374v11M253 374h11M253 374v11M297 374h11M297 374v11M308 374h11M319 374h11M330 374h11M330 374v11M341 374h11M352 374h11M363 374h11M363 374v11M407 374h11M418 374h11M429 374v11M440 374h11M451 374h11M462 374v11M473 374h11M473 374v11M528 374h11M539 374v11M550 374v11M561 374h11M572 374v11M627 374h11M627 374v11M649 374h11M649 374v11M660 374v11M682 374v11M0 385h11M11 385v11M44 385h11M44 385v11M77 385h11M88 385v11M110 385v11M121 385h11M121 385v11M132 385v11M143 385h11M143 385v11M154 385h11M154 385v11M165 385h11M165 385v11M187 385h11M198 385h11M198 385v11M209 385h11M209 385v11M231 385h11M231 385v11M242 385v11M253 385h11M264 385v11M286 385h11M286 385v11M330 385h11M341 385v11M352 385h11M352 385v11M363 385h11M374 385v11M418 385h11M418 385v11M429 385h11M429 385v11M440 385h11M440 385v11M451 385h11M451 385v11M462 385h11M473 385h11M484 385h11M495 385v11M528 385h11M528 385v11M539 385h11M539 385v11M572 385h11M583 385v11M616 385h11M616 385v11M627 385v11M638 385h11M638 385v11M649 385v11M660 385h11M660 385v11M671 385h11M671 385v11M0 396h11M0 396v11M11 396h11M11 396v11M22 396v11M33 396h11M33 396v11M44 396v11M77 396h11M77 396v11M110 396h11M121 396v11M132 396h11M154 396v11M165 396v11M198 396h11M209 396h11M209 396v11M220 396h11M231 396h11M231 396v11M242 396h11M253 396h11M253 396v11M264 396h11M264 396v11M275 396h11M275 396v11M286 396h11M286 396v11M297 396v11M330 396h11M330 396v11M341 396h11M341 396v11M374 396h11M385 396h11M385 396v11M396 396h11M407 396h11M407 396v11M418 396h11M440 396h11M440 396v11M451 396h11M451 396v11M462 396h11M462 396v11M473 396h11M484 396h11M484 396v11M495 396h11M495 396v11M506 396v11M517 396h11M517 396v11M528 396h11M528 396v11M539 396h11M539 396v11M550 396v11M572 396h11M572 396v11M583 396h11M583 396v11M594 396h11M594 396v11M605 396h11M616 396h11M616 396v11M627 396h11M627 396v11M649 396h11M660 396h11M660 396v11M671 396h11M682 396v11M0 407h11M0 407v11M11 407h11M11 407v11M22 407h11M44 407v11M77 407h11M88 407v11M110 407h11M110 407v11M154 407h11M165 407v11M198 407h11M198 407v11M220 407h11M220 407v11M231 407v11M253 407v11M264 407h11M286 407h11M286 407v11M308 407h11M308 407v11M319 407v11M330 407h11M341 407v11M374 407h11M374 407v11M396 407h11M396 407v11M407 407h11M407 407v11M418 407h11M429 407h11M440 407v11M451 407h11M484 407h11M484 407v11M495 407h11M506 407h11M506 407v11M528 407h11M539 407h11M539 407v11M550 407v11M572 407v11M583 407h11M594 407v11M616 407h11M616 407v11M660 407h11M671 407h11M682 407h11M682 407v11M693 407v11M0 418h11M0 418v11M11 418h11M22 418h11M33 418h11M44 418h11M44 418v11M55 418v11M77 418h11M77 418v11M88 418h11M88 418v11M99 418v11M110 418h11M110 418v11M121 418v11M154 418h11M154 418v11M165 418v11M187 418h11M187 418v11M198 418h11M198 418v11M209 418h11M209 418v11M220 418v11M231 418h11M242 418h11M242 418v11M286 418h11M297 418h11M297 418v11M308 418v11M319 418h11M330 418h11M341 418v11M374 418h11M385 418h11M385 418v11M407 418v11M418 418h11M418 418v11M429 418h11M429 418v11M484 418h11M495 418h11M495 418v11M539 418h11M550 418h11M561 418h11M561 418v11M594 418h11M605 418h11M605 418v11M616 418h11M616 418v11M627 418v11M671 418h11M671 418v11M693 418h11M44 429h11M55 429h11M55 429v11M66 429h11M88 429h11M88 429v11M99 429h11M99 429v11M121 429h11M121 429v11M132 429v11M143 429h11M143 429v11M154 429h11M165 429h11M165 429v11M176 429v11M187 429h11M187 429v11M198 429h11M198 429v11M209 429h11M209 429v11M242 429h11M253 429v11M286 429h11M286 429v11M308 429h11M319 429h11M330 429h11M330 429v11M341 429h11M352 429v11M374 429h11M374 429v11M385 429h11M385 429v11M396 429h11M407 429h11M418 429h11M429 429h11M429 429v11M440 429v11M484 429h11M484 429v11M495 429h11M495 429v11M506 429v11M550 429h11M550 429v11M561 429h11M572 429v11M594 429h11M594 429v11M605 429v11M616 429h11M627 429h11M627 429v11M638 429h11M649 429h11M649 429v11M660 429h11M660 429v11M671 429h11M682 429h11M682 429v11M693 429h11M693 429v11M0 440v11M44 440h11M44 440v11M55 440h11M66 440h11M66 440v11M77 440h11M99 440h11M110 440h11M121 440v11M132 440h11M143 440v11M165 440h11M165 440v11M176 440h11M198 440h11M209 440h11M209 440v11M220 440v11M242 440h11M242 440v11M253 440h11M253 440v11M264 440v11M275 440h11M275 440v11M330 440h11M330 440v11M341 440h11M341 440v11M352 440h11M363 440h11M374 440h11M374 440v11M429 440h11M440 440h11M440 440v11M451 440h11M451 440v11M462 440h11M462 440v11M473 440h11M473 440v11M484 440h11M484 440v11M506 440h11M517 440h11M528 440h11M528 440v11M539 440h11M550 440v11M572 440v11M594 440h11M594 440v11M627 440h11M638 440v11M649 440h11M671 440h11M671 440v11M682 440h11M693 440h11M693 440v11M0 451v11M22 451h11M22 451v11M33 451v11M44 451v11M66 451v11M110 451h11M110 451v11M121 451v11M132 451h11M132 451v11M143 451h11M154 451h11M154 451v11M165 451v11M209 451v11M220 451v11M242 451v11M253 451v11M264 451h11M264 451v11M275 451h11M286 451h11M297 451v11M308 451h11M308 451v11M319 451h11M341 451v11M352 451h11M352 451v11M363 451h11M363 451v11M374 451h11M374 451v11M385 451v11M429 451h11M429 451v11M440 451v11M451 451h11M473 451h11M473 451v11M517 451h11M517 451v11M528 451h11M528 451v11M539 451h11M550 451h11M561 451h11M572 451h11M572 451v11M583 451h11M583 451v11M594 451h11M605 451v11M627 451h11M627 451v11M671 451h11M682 451v11M693 451h11M0 462h11M0 462v11M11 462h11M11 462v11M33 462h11M33 462v11M44 462h11M44 462v11M55 462h11M55 462v11M66 462h11M77 462h11M88 462v11M99 462h11M99 462v11M110 462v11M121 462h11M154 462v11M165 462h11M176 462v11M209 462v11M220 462h11M231 462h11M231 462v11M242 462h11M242 462v11M264 462h11M264 462v11M275 462h11M286 462h11M297 462h11M308 462h11M308 462v11M319 462h11M330 462h11M330 462v11M341 462h11M341 462v11M352 462h11M374 462h11M385 462v11M407 462h11M407 462v11M418 462v11M429 462h11M429 462v11M473 462h11M484 462v11M517 462h11M528 462h11M528 462v11M539 462h11M550 462h11M550 462v11M561 462h11M583 462h11M594 462v11M605 462v11M627 462h11M627 462v11M638 462v11M671 462h11M671 462v11M682 462h11M693 462h11M0 473v11M11 473h11M22 473v11M33 473h11M33 473v11M55 473h11M66 473v11M77 473h11M77 473v11M88 473h11M88 473v11M99 473h11M99 473v11M154 473h11M165 473h11M165 473v11M209 473h11M209 473v11M220 473h11M231 473v11M242 473h11M253 473h11M253 473v11M308 473h11M319 473h11M319 473v11M341 473v11M385 473h11M385 473v11M396 473h11M418 473h11M429 473h11M429 473v11M440 473v11M473 473h11M473 473v11M484 473h11M495 473v11M506 473h11M506 473v11M517 473h11M517 473v11M550 473h11M561 473v11M594 473h11M605 473h11M605 473v11M616 473h11M627 473v11M638 473h11M649 473h11M649 473v11M660 473h11M671 473h11M682 473h11M693 473v11M0 484h11M0 484v11M11 484h11M22 484h11M22 484v11M66 484h11M77 484v11M88 484h11M99 484h11M99 484v11M110 484v11M154 484h11M154 484v11M165 484h11M165 484v11M176 484h11M176 484v11M187 484v11M198 484h11M198 484v11M209 484v11M231 484v11M242 484h11M242 484v11M253 484h11M253 484v11M264 484v11M308 484h11M308 484v11M319 484v11M330 484h11M330 484v11M341 484h11M341 484v11M352 484v11M385 484v11M429 484v11M440 484h11M440 484v11M451 484v11M462 484h11M462 484v11M484 484h11M484 484v11M495 484h11M506 484v11M517 484v11M550 484h11M550 484v11M594 484h11M594 484v11M627 484h11M638 484h11M638 484v11M693 484h11M0 495v11M22 495h11M22 495v11M33 495v11M66 495h11M66 495v11M99 495h11M110 495h11M110 495v11M121 495h11M121 495v11M132 495h11M143 495h11M143 495v11M154 495h11M176 495h11M187 495h11M198 495v11M209 495h11M220 495h11M220 495v11M231 495h11M231 495v11M242 495v11M253 495h11M264 495v11M286 495h11M286 495v11M297 495v11M308 495v11M319 495h11M341 495h11M341 495v11M385 495h11M385 495v11M396 495v11M429 495h11M429 495v11M451 495h11M462 495h11M473 495h11M473 495v11M506 495h11M517 495v11M550 495h11M561 495h11M561 495v11M572 495v11M583 495h11M583 495v11M594 495h11M605 495v11M638 495h11M638 495v11M649 495v11M693 495h11M693 495v11M22 506h11M33 506v11M44 506h11M44 506v11M55 506v11M66 506h11M66 506v11M77 506v11M99 506h11M99 506v11M110 506h11M110 506v11M121 506v11M143 506v11M187 506h11M187 506v11M220 506h11M231 506h11M231 506v11M264 506h11M264 506v11M275 506h11M275 506v11M286 506h11M286 506v11M297 506h11M297 506v11M341 506h11M352 506h11M352 506v11M363 506v11M374 506h11M374 506v11M385 506h11M385 506v11M429 506v11M462 506h11M462 506v11M473 506v11M506 506h11M506 506v11M517 506h11M528 506v11M550 506h11M550 506v11M561 506h11M561 506v11M572 506h11M572 506v11M594 506h11M594 506v11M638 506v11M649 506v11M671 506h11M671 506v11M682 506v11M693 506h11M693 506v11M0 517v11M22 517h11M22 517v11M33 517h11M44 517h11M44 517v11M55 517h11M66 517h11M77 517v11M99 517h11M99 517v11M121 517h11M132 517h11M143 517h11M143 517v11M154 517h11M154 517v11M165 517v11M176 517h11M176 517v11M187 517h11M187 517v11M198 517v11M220 517h11M220 517v11M264 517v11M275 517h11M297 517h11M308 517v11M341 517h11M341 517v11M363 517h11M363 517v11M374 517h11M385 517h11M396 517h11M407 517v11M418 517h11M418 517v11M429 517v11M462 517h11M473 517v11M506 517h11M517 517h11M517 517v11M528 517h11M528 517v11M539 517h11M561 517v11M572 517h11M583 517h11M583 517v11M594 517h11M594 517v11M605 517v11M627 517h11M627 517v11M638 517v11M649 517h11M660 517h11M660 517v11M671 517h11M671 517v11M682 517h11M693 517h11M0 528h11M11 528v11M22 528v11M44 528v11M55 528h11M55 528v11M66 528h11M66 528v11M77 528h11M88 528h11M88 528v11M99 528v11M132 528h11M132 528v11M143 528h11M143 528v11M165 528h11M187 528v11M198 528v11M220 528h11M220 528v11M231 528v11M264 528h11M264 528v11M275 528v11M308 528h11M308 528v11M319 528v11M330 528h11M330 528v11M341 528h11M352 528h11M352 528v11M407 528h11M418 528v11M429 528v11M473 528h11M473 528v11M484 528v11M506 528h11M506 528v11M528 528h11M539 528h11M550 528h11M550 528v11M561 528h11M561 528v11M572 528v11M583 528v11M594 528h11M605 528h11M616 528h11M616 528v11M638 528h11M649 528h11M660 528v11M671 528h11M671 528v11M682 528v11M693 528h11M693 528v11M11 539h11M11 539v11M44 539h11M55 539h11M55 539v11M88 539h11M99 539v11M132 539h11M143 539v11M176 539h11M176 539v11M187 539h11M187 539v11M198 539h11M209 539h11M209 539v11M220 539h11M220 539v11M231 539h11M231 539v11M242 539v11M253 539h11M253 539v11M264 539h11M264 539v11M308 539v11M319 539h11M319 539v11M330 539v11M352 539h11M352 539v11M363 539v11M407 539h11M407 539v11M418 539v11M429 539h11M440 539v11M451 539h11M451 539v11M462 539h11M473 539v11M484 539h11M495 539h11M495 539v11M550 539h11M550 539v11M572 539h11M583 539h11M594 539h11M594 539v11M605 539h11M605 539v11M649 539h11M649 539v11M671 539v11M682 539h11M693 539v11M11 550h11M22 550v11M44 550h11M44 550v11M55 550h11M66 550v11M99 550v11M143 550v11M176 550h11M187 550v11M198 550h11M198 550v11M209 550h11M209 550v11M220 550h11M220 550v11M231 550h11M231 550v11M242 550h11M264 550v11M275 550h11M275 550v11M286 550v11M297 550h11M297 550v11M319 550h11M319 550v11M352 550h11M363 550v11M385 550h11M385 550v11M396 550v11M407 550h11M407 550v11M418 550h11M429 550h11M429 550v11M440 550h11M440 550v11M473 550h11M484 550h11M484 550v11M495 550h11M506 550h11M517 550v11M528 550h11M528 550v11M539 550h11M539 550v11M583 550h11M583 550v11M605 550h11M616 550v11M649 550h11M660 550h11M660 550v11M671 550v11M682 550h11M682 550v11M11 561h11M11 561v11M22 561h11M33 561v11M44 561v11M55 561h11M55 561v11M99 561h11M99 561v11M110 561v11M121 561h11M121 561v11M132 561h11M143 561h11M154 561v11M165 561h11M165 561v11M176 561v11M187 561v11M198 561h11M198 561v11M209 561v11M220 561h11M231 561h11M231 561v11M242 561h11M242 561v11M253 561h11M253 561v11M264 561h11M264 561v11M286 561h11M286 561v11M297 561h11M308 561h11M319 561h11M319 561v11M330 561v11M352 561h11M352 561v11M363 561h11M374 561h11M385 561h11M396 561h11M396 561v11M407 561v11M429 561v11M440 561v11M473 561h11M473 561v11M484 561h11M484 561v11M495 561h11M506 561v11M517 561h11M517 561v11M528 561h11M539 561h11M550 561v11M583 561h11M594 561h11M594 561v11M605 561h11M616 561h11M627 561v11M638 561h11M638 561v11M649 561h11M671 561h11M682 561h11M693 561v11M0 572v11M11 572h11M11 572v11M22 572h11M33 572h11M33 572v11M44 572h11M55 572h11M66 572v11M88 572h11M88 572v11M99 572v11M110 572h11M110 572v11M121 572h11M132 572v11M143 572h11M143 572v11M154 572h11M165 572h11M176 572h11M176 572v11M187 572h11M209 572h11M220 572v11M231 572v11M242 572h11M264 572h11M275 572v11M286 572h11M286 572v11M297 572v11M308 572h11M308 572v11M319 572v11M330 572h11M341 572v11M352 572h11M352 572v11M363 572h11M374 572h11M385 572h11M396 572h11M396 572v11M429 572h11M440 572v11M473 572h11M484 572v11M506 572h11M506 572v11M517 572h11M517 572v11M528 572v11M539 572h11M539 572v11M550 572h11M561 572v11M572 572h11M572 572v11M583 572h11M583 572v11M627 572h11M638 572v11M682 572h11M682 572v11M693 572h11M0 583h11M22 583h11M22 583v11M33 583h11M33 583v11M44 583v11M55 583h11M55 583v11M66 583h11M66 583v11M77 583h11M88 583v11M99 583h11M99 583v11M132 583h11M143 583h11M143 583v11M154 583h11M154 583v11M165 583v11M176 583h11M176 583v11M187 583v11M220 583h11M231 583h11M231 583v11M242 583v11M275 583h11M275 583v11M286 583v11M297 583h11M319 583h11M330 583h11M330 583v11M341 583h11M341 583v11M396 583h11M407 583v11M429 583h11M429 583v11M440 583h11M440 583v11M451 583v11M473 583h11M473 583v11M506 583h11M517 583v11M528 583h11M561 583h11M561 583v11M583 583h11M594 583v11M627 583h11M627 583v11M638 583h11M649 583h11M660 583v11M671 583h11M671 583v11M682 583h11M682 583v11M693 583v11M22 594h11M33 594v11M44 594h11M66 594v11M77 594h11M77 594v11M99 594h11M99 594v11M110 594v11M143 594h11M143 594v11M165 594h11M176 594h11M176 594v11M220 594h11M220 594v11M231 594h11M231 594v11M275 594v11M286 594h11M286 594v11M297 594v11M330 594v11M341 594h11M352 594h11M363 594v11M396 594h11M396 594v11M407 594h11M418 594v11M429 594h11M429 594v11M451 594h11M462 594h11M473 594h11M473 594v11M484 594v11M506 594h11M506 594v11M561 594h11M572 594h11M572 594v11M583 594h11M583 594v11M605 594h11M605 594v11M616 594v11M627 594h11M638 594h11M638 594v11M649 594v11M660 594h11M660 594v11M671 594v11M682 594h11M682 594v11M22 605h11M22 605v11M66 605h11M77 605h11M77 605v11M88 605h11M99 605h11M99 605v11M143 605v11M176 605h11M187 605h11M187 605v11M198 605v11M209 605h11M209 605v11M220 605h11M220 605v11M231 605v11M242 605h11M242 605v11M253 605v11M264 605h11M264 605v11M275 605v11M286 605h11M286 605v11M330 605h11M330 605v11M341 605h11M341 605v11M352 605h11M352 605v11M363 605h11M363 605v11M374 605v11M385 605h11M385 605v11M396 605h11M396 605v11M407 605v11M418 605h11M418 605v11M462 605h11M462 605v11M484 605h11M495 605v11M506 605h11M506 605v11M517 605v11M561 605h11M561 605v11M572 605v11M583 605h11M594 605h11M605 605h11M605 605v11M616 605h11M627 605h11M627 605v11M638 605v11M649 605h11M671 605v11M682 605h11M693 605v11M0 616h11M0 616v11M11 616h11M11 616v11M22 616h11M22 616v11M33 616v11M66 616h11M66 616v11M88 616h11M88 616v11M99 616h11M110 616v11M132 616h11M132 616v11M143 616v11M176 616h11M176 616v11M187 616v11M198 616h11M209 616v11M220 616h11M231 616h11M231 616v11M253 616h11M264 616h11M264 616v11M275 616v11M286 616v11M297 616h11M297 616v11M308 616v11M319 616h11M319 616v11M330 616v11M341 616v11M352 616h11M374 616h11M385 616v11M396 616h11M407 616h11M407 616v11M418 616h11M418 616v11M429 616v11M462 616h11M473 616h11M473 616v11M484 616h11M495 616h11M506 616h11M517 616h11M517 616v11M528 616h11M539 616h11M550 616h11M561 616h11M561 616v11M572 616h11M572 616v11M583 616h11M583 616v11M594 616h11M594 616v11M616 616h11M616 616v11M627 616h11M627 616v11M671 616h11M682 616h11M682 616v11M693 616h11M693 616v11M11 627h11M22 627h11M22 627v11M33 627h11M44 627v11M55 627h11M55 627v11M66 627h11M77 627h11M77 627v11M88 627v11M110 627h11M110 627v11M121 627h11M121 627v11M132 627v11M143 627v11M165 627h11M165 627v11M176 627h11M176 627v11M187 627h11M187 627v11M198 627v11M209 627v11M220 627h11M220 627v11M264 627h11M275 627h11M286 627h11M286 627v11M297 627h11M297 627v11M308 627h11M330 627h11M341 627h11M352 627v11M385 627h11M385 627v11M396 627h11M418 627h11M429 627h11M440 627v11M451 627h11M451 627v11M462 627h11M462 627v11M517 627h11M528 627h11M528 627v11M539 627h11M539 627v11M550 627h11M550 627v11M572 627h11M594 627h11M605 627h11M605 627v11M616 627h11M616 627v11M627 627h11M638 627v11M671 627h11M671 627v11M682 627h11M693 627h11M693 627v11M22 638h11M33 638h11M44 638h11M44 638v11M66 638h11M66 638v11M88 638h11M99 638h11M110 638h11M110 638v11M132 638h11M143 638h11M154 638v11M165 638v11M176 638h11M176 638v11M187 638v11M198 638h11M209 638h11M220 638h11M220 638v11M231 638v11M275 638h11M275 638v11M286 638h11M297 638v11M341 638h11M341 638v11M385 638v11M429 638h11M429 638v11M440 638h11M462 638h11M473 638h11M484 638v11M517 638h11M517 638v11M539 638h11M550 638v11M605 638h11M605 638v11M616 638h11M627 638v11M638 638h11M638 638v11M649 638v11M660 638h11M660 638v11M671 638h11M671 638v11M682 638h11M682 638v11M33 649h11M33 649v11M44 649h11M44 649v11M55 649h11M55 649v11M99 649h11M99 649v11M154 649h11M154 649v11M165 649h11M187 649h11M198 649h11M209 649h11M209 649v11M231 649h11M242 649h11M253 649h11M253 649v11M264 649h11M264 649v11M275 649h11M286 649v11M297 649h11M308 649h11M308 649v11M319 649v11M330 649h11M330 649v11M341 649v11M352 649h11M352 649v11M363 649v11M374 649h11M374 649v11M385 649h11M396 649h11M407 649v11M418 649h11M418 649v11M429 649v11M473 649h11M473 649v11M484 649h11M484 649v11M495 649v11M506 649h11M506 649v11M517 649h11M517 649v11M528 649h11M528 649v11M539 649h11M539 649v11M550 649h11M561 649v11M594 649h11M594 649v11M616 649h11M616 649v11M627 649v11M638 649h11M638 649v11M649 649h11M660 649h11M660 649v11M682 649h11M682 649v11M693 649v11M0 660h11M0 660v11M11 660h11M22 660h11M22 660v11M44 660v11M55 660h11M66 660v11M99 660h11M110 660h11M110 660v11M121 660v11M132 660h11M132 660v11M143 660h11M154 660v11M198 660h11M198 660v11M242 660h11M242 660v11M253 660h11M253 660v11M286 660h11M297 660h11M297 660v11M308 660h11M319 660h11M319 660v11M341 660h11M352 660h11M352 660v11M363 660h11M374 660v11M385 660h11M385 660v11M396 660h11M396 660v11M407 660h11M407 660v11M418 660v11M429 660h11M440 660h11M451 660v11M462 660h11M462 660v11M473 660h11M473 660v11M495 660h11M517 660h11M517 660v11M539 660h11M550 660h11M561 660h11M561 660v11M572 660h11M583 660h11M583 660v11M594 660h11M605 660h11M605 660v11M616 660h11M616 660v11M627 660h11M638 660v11M660 660v11M671 660h11M671 660v11M693 660h11M0 671v11M22 671v11M33 671h11M33 671v11M66 671h11M77 671v11M88 671h11M88 671v11M99 671h11M99 671v11M121 671h11M132 671h11M143 671v11M154 671h11M154 671v11M165 671h11M176 671v11M187 671h11M187 671v11M198 671h11M209 671v11M242 671h11M253 671v11M286 671h11M286 671v11M308 671h11M308 671v11M352 671h11M363 671h11M374 671h11M374 671v11M396 671h11M418 671h11M429 671h11M429 671v11M440 671h11M451 671h11M451 671v11M473 671v11M506 671h11M506 671v11M561 671h11M561 671v11M572 671v11M583 671h11M594 671v11M605 671h11M627 671h11M627 671v11M638 671h11M638 671v11M649 671h11M649 671v11M660 671h11M660 671v11M671 671h11M671 671v11M682 671h11M682 671v11M693 671h11M693 671v11M0 682h11M0 682v11M11 682h11M11 682v11M22 682h11M22 682v11M33 682h11M44 682v11M66 682h11M66 682v11M77 682h11M88 682h11M88 682v11M143 682h11M143 682v11M176 682h11M187 682h11M187 682v11M198 682h11M209 682h11M209 682v11M220 682v11M231 682h11M231 682v11M242 682h11M253 682v11M286 682h11M297 682h11M297 682v11M308 682h11M319 682v11M363 682h11M363 682v11M374 682v11M429 682v11M451 682h11M451 682v11M462 682h11M473 682v11M506 682h11M517 682h11M517 682v11M528 682v11M539 682h11M539 682v11M550 682h11M550 682v11M561 682v11M572 682h11M583 682h11M583 682v11M627 682h11M638 682h11M638 682v11M649 682h11M649 682v11M671 682h11M682 682h11M682 682v11M0 693v11M11 693h11M44 693v11M66 693h11M66 693v11M77 693h11M88 693h11M99 693h11M99 693v11M110 693v11M121 693h11M121 693v11M132 693h11M143 693v11M176 693h11M176 693v11M198 693h11M198 693v11M209 693h11M220 693h11M231 693h11M242 693v11M253 693h11M264 693v11M286 693h11M286 693v11M297 693h11M308 693v11M319 693h11M330 693h11M330 693v11M341 693h11M352 693h11M352 693v11M363 693h11M374 693h11M385 693v11M418 693h11M418 693v11M429 693h11M440 693h11M451 693h11M462 693v11M473 693h11M484 693v11M495 693h11M495 693v11M506 693v11M517 693h11M517 693v11M528 693h11M539 693h11M550 693h11M550 693v11M583 693h11M583 693v11M594 693v11M627 693h11M627 693v11M638 693h11M638 693v11M682 693h11M693 693h11" fill="none" stroke="#000" stroke-width="1"></path>
</svg>